# xmcd CD database file
#
# Track frame offsets:
#	150
#	14129
#	30859
#	43281
#	55856
#	67790
#	81538
#	93912
#	107072
#	122650
#
# Disc length: 1788 seconds
#
# Revision: 0
# Processed by: cddbd v1.5.2PL0 Copyright (c) Steve Scherf et al.
# Submitted via: CDex 1.70
#
DISCID=7e06fa0a
DTITLE=Merle Haggard - The Ballad Singer
DYEAR=2005
DGENRE=Country
TTITLE0=Always Wanting You
TTITLE1=Today i Started Loving You Again
TTITLE2=I'm Always On A Mountain When I Fall
TTITLE3=Emptiest Arms In the World
TTITLE4=Things Aren't Funny Anymore
TTITLE5=I Threw Away The Rose
TTITLE6=If We Make It Through December
TTITLE7=Holdin' Things Together
TTITLE8=It's All In the Movies
TTITLE9=Turnin' Off A Memory
EXTD=YEAR: 2005
EXTT0=
EXTT1=
EXTT2=
EXTT3=
EXTT4=
EXTT5=
EXTT6=
EXTT7=
EXTT8=
EXTT9=
PLAYORDER=
